<svg width="402" height="273" xmlns="http://www.w3.org/2000/svg"><g fill="none" fill-rule="evenodd"><path d="M195 82v-1a4 4 0 0 0-4-4h-23a9 9 0 0 1-9-9v-4a9 9 0 0 1 9-9h6.5a2.5 2.5 0 1 0 0-5H9a9 9 0 0 1-9-9v-5a9 9 0 0 1 9-9h170a4 4 0 1 0 0-8h-21a9 9 0 1 1 0-18h57a9 9 0 1 1 0 18h-12a4 4 0 1 0 0 8 9 9 0 0 1 9 9v5a9 9 0 0 1-9 9h-8.5a2.5 2.5 0 1 0 0 5H225a9 9 0 0 1 9 9v4a9 9 0 0 1-9 9h-6a4 4 0 0 0-4 4v5a9 9 0 0 1 9 9v5a9 9 0 0 1-9 9H71a9 9 0 0 1-9-9v-5a9 9 0 0 1 9-9h120a4 4 0 0 0 4-4zM265 134v6a4 4 0 0 0 4 4h69a9 9 0 0 1 9 9v5a9 9 0 0 1-9 9h-97a9 9 0 0 1-9-9v-5a9 9 0 0 1 9-9h7a4 4 0 0 0 4-4v-6a4 4 0 0 0-4-4h-19a9 9 0 0 1-9 9h-45a9 9 0 1 1 0-18h17a9 9 0 0 1 9-9h90a9 9 0 1 1 0 18h-22a4 4 0 0 0-4 4zM324 251.5a3.5 3.5 0 0 0 3.5 3.5H355a9 9 0 1 1 0 18h-58a9 9 0 1 1 0-18h8.5a3.5 3.5 0 1 0 0-7H188a9 9 0 0 1-9-9v-5a9 9 0 0 1 9-9h124.5a3.5 3.5 0 1 0 0-7H288a9 9 0 1 1 0-18h56a9 9 0 1 1 0 18h-9.5a3.5 3.5 0 1 0 0 7h.5a9 9 0 0 1 9 9v5a9 9 0 0 1-9 9h-7.5a3.5 3.5 0 0 0-3.5 3.5z" fill="#DDE0E7"/><path d="M262 78.5a3.5 3.5 0 0 0-3.5-3.5H219a9 9 0 1 1 0-18h65a9 9 0 1 1 0 18h-3.5a3.5 3.5 0 1 0 0 7H393a9 9 0 0 1 9 9v5a9 9 0 0 1-9 9H249a9 9 0 0 1-9-9v-5a9 9 0 0 1 9-9h9.5a3.5 3.5 0 0 0 3.5-3.5zM107 185.5a3.5 3.5 0 0 0 3.5 3.5h.5a9 9 0 1 1 0 18H55a9 9 0 1 1 0-18h34.5a3.5 3.5 0 1 0 0-7H68a9 9 0 0 1-9-9v-5a9 9 0 0 1 9-9h4.5a3.5 3.5 0 1 0 0-7H44a9 9 0 1 1 0-18h56a9 9 0 1 1 0 18h-6.5a3.5 3.5 0 1 0 0 7H215a9 9 0 0 1 9 9v5c0 .338-.019.672-.055 1H246a9 9 0 1 1 0 18h-58a9 9 0 0 1-8.945-10H110.5a3.5 3.5 0 0 0-3.5 3.5z" fill="#DDE0E7"/><path d="M159.465 208.281a1.519 1.519 0 0 1 1.6-1.411c2.828.157 4.97.251 6.423.283l-.065 2.999c-1.485-.032-3.673-.129-6.562-.289a1.481 1.481 0 0 1-1.396-1.582zm9.982 1.902l.025-3c2.743.022 5.379-.036 7.906-.174l.164 2.995c-2.591.142-5.29.201-8.095.179zm10.113-.308l-.218-2.992c2.74-.2 5.346-.499 7.818-.896l.476 2.962c-2.56.411-5.251.72-8.076.926zm10.1-1.278l-.552-2.949a63.236 63.236 0 0 0 7.582-1.887l.912 2.858a66.225 66.225 0 0 1-7.942 1.978zm9.883-2.637l-1.017-2.822c2.555-.921 4.896-2 7.021-3.232l1.506 2.595c-2.285 1.325-4.789 2.478-7.51 3.46zm9.304-4.565l-1.643-2.51c2.21-1.447 4.162-3.08 5.858-4.903l2.196 2.044c-1.864 2.002-4.002 3.792-6.411 5.369zm7.763-6.918l-2.321-1.9a29.543 29.543 0 0 0 4.016-6.47l2.729 1.247a32.542 32.542 0 0 1-4.424 7.123zm5.24-9.06l-2.8-1.081c.505-1.305 1.058-3.297 1.66-5.975a1.584 1.584 0 0 1 1.8-1.216 1.421 1.421 0 0 1 1.158 1.714c-.659 2.938-1.265 5.124-1.819 6.557zM221.5 68.983a1.405 1.405 0 0 1-1.356-1.548c.313-3.04.686-5.3 1.12-6.782l2.88.843c-.387 1.32-.721 3.337-1.003 6.051a1.602 1.602 0 0 1-1.642 1.436zm3.25-9.3l-2.808-1.059a26.685 26.685 0 0 1 4.203-7.358l2.337 1.881a23.685 23.685 0 0 0-3.733 6.536zm4.988-7.979l-2.185-2.055c1.846-1.962 4.023-3.72 6.53-5.271l1.579 2.55c-2.289 1.418-4.262 3.01-5.924 4.776zm7.542-5.72l-1.445-2.629c2.279-1.252 4.8-2.355 7.563-3.307l.978 2.836c-2.606.899-4.971 1.932-7.096 3.1zm9.015-3.724l-.879-2.869a75.047 75.047 0 0 1 7.93-1.939l.561 2.947a72.06 72.06 0 0 0-7.612 1.86zm9.446-2.19l-.5-2.958c2.544-.43 5.226-.776 8.046-1.039l.278 2.987c-2.747.257-5.355.593-7.824 1.01zm9.812-1.18l-.232-2.99c2.58-.2 5.27-.334 8.07-.401l.073 2.999c-2.749.066-5.386.197-7.911.393zm9.914-.429l-.037-3c1.063-.013 2.59-.01 4.583.007a1.487 1.487 0 0 1 1.474 1.515 1.513 1.513 0 0 1-1.526 1.485c-1.953-.018-3.45-.02-4.494-.007z" fill="#FFA48B" fill-rule="nonzero"/><path fill="#FFE576" d="M335.39 130.345l-6.545 1.123 3.09-5.878-3.09-5.878 6.545 1.123 4.636-4.756.955 6.572 5.955 2.939-5.955 2.939-.955 6.571z"/><path fill="#FFCDB3" d="M249.95 13.62l-5.89 1.01 2.78-5.29-2.78-5.29 5.89 1.01 4.172-4.279.86 5.915 5.359 2.645-5.36 2.645-.86 5.914z"/><path fill="#A2E5EA" d="M360.845 237.885l-5.237.898 2.473-4.702-2.473-4.703 5.237.898 3.708-3.804.764 5.257 4.764 2.352-4.764 2.35-.764 5.258z"/><path d="M256 257h2v6h-2v-6zm0 10h2v6h-2v-6zm3-3h6v2h-6v-2zm-10 0h6v2h-6v-2z" fill="#C0C3CE"/><path d="M341 175h2v6h-2v-6zm0 10h2v6h-2v-6zm3-3h6v2h-6v-2zm-10 0h6v2h-6v-2zM50 219h2v6h-2v-6zm0 10h2v6h-2v-6zm3-3h6v2h-6v-2zm-10 0h6v2h-6v-2z" fill="#FFCDB3"/><path d="M149 255h2v6h-2v-6zm0 10h2v6h-2v-6zm3-3h6v2h-6v-2zm-10 0h6v2h-6v-2zM122 1h2v6h-2V1zm0 10h2v6h-2v-6zm3-3h6v2h-6V8zm-10 0h6v2h-6V8z" fill="#C0C3CE"/><path d="M94.5 73a6.5 6.5 0 1 1 0-13 6.5 6.5 0 0 1 0 13zm0-2a4.5 4.5 0 1 0 0-9 4.5 4.5 0 0 0 0 9zM354.5 67a6.5 6.5 0 1 1 0-13 6.5 6.5 0 0 1 0 13zm0-2a4.5 4.5 0 1 0 0-9 4.5 4.5 0 0 0 0 9z" fill="#A2E5EA"/><g><path d="M55.538 165.097l25.615 89.33a2 2 0 0 0 2.474 1.37l76.9-22.05a2 2 0 0 0 1.372-2.474l-30.32-105.739a2 2 0 0 0-2.474-1.371l-60.491 17.345a2 2 0 0 0-1.198.953l-11.704 21.116a2 2 0 0 0-.174 1.52zm11.453-26.244l63.21-18.125a3 3 0 0 1 3.71 2.057l31.423 109.584a3 3 0 0 1-2.057 3.71l-80.746 23.154a3 3 0 0 1-3.71-2.057l-26.395-92.048a3 3 0 0 1 .26-2.281l12.508-22.565a3 3 0 0 1 1.797-1.429z" fill="#A8A9B4" fill-rule="nonzero"/><path d="M55.538 165.097l25.615 89.33a2 2 0 0 0 2.474 1.37l76.9-22.05a2 2 0 0 0 1.372-2.474l-30.32-105.739a2 2 0 0 0-2.474-1.371l-60.491 17.345a2 2 0 0 0-1.198.953l-11.704 21.116a2 2 0 0 0-.174 1.52z" fill="#F2F3F7" fill-rule="nonzero"/><g transform="rotate(-16 790.323 -183.196)"><rect fill="#9FA1AE" y="14" width="60" height="2" rx="1"/><rect fill="#9FA1AE" y="18" width="60" height="2" rx="1"/><rect fill="#9FA1AE" y="22" width="60" height="2" rx="1"/><rect fill="#9FA1AE" y="26" width="60" height="2" rx="1"/><rect fill="#9FA1AE" y="6" width="60" height="2" rx="1"/><rect fill="#9FA1AE" y="10" width="60" height="2" rx="1"/><rect fill="#B2CAF6" width="20" height="3" rx="1"/></g><g transform="rotate(-16 697.823 -170.196)"><rect fill="#B2CAF6" width="20" height="3" rx="1"/><rect fill="#9FA1AE" y="6" width="60" height="2" rx="1"/><rect fill="#9FA1AE" y="10" width="60" height="2" rx="1"/><rect fill="#9FA1AE" y="14" width="40" height="2" rx="1"/></g><g transform="rotate(-16 604.823 -160.753)"><circle fill="#B2CAF6" cx="8" cy="8" r="8"/><rect fill="#B2CAF6" x="23" y="2" width="20" height="3" rx="1"/><rect fill="#9FA1AE" x="23" y="7" width="30" height="2" rx="1"/><rect fill="#9FA1AE" x="23" y="11" width="30" height="2" rx="1"/></g></g><g stroke="#9FA1AE" stroke-width="3"><path d="M268.5 110.75L222 75.875l-46.5 34.875v57.75h93v-57.75z" fill="#FFA48B"/><path d="M175.5 113.018V168.5h93v-55.482L237.504 136.5h-31.008L175.5 113.018z" fill="#F2F3F7"/><path d="M207.471 136.5L175.5 158.783v9.717h93v-9.717L236.529 136.5H207.47z"/></g><g fill="#F2F3F7" stroke="#9FA1AE" stroke-width="2"><path d="M292.13 48.18l-14.662 2.75a1.1 1.1 0 0 1-1.03-1.806l13.24-15.13-17.185-20.049a1.1 1.1 0 0 1 1.22-1.746l74.062 27.65a1.3 1.3 0 0 1 .226 2.324L296.658 73.77a1.1 1.1 0 0 1-1.67-.81L292.13 48.18z"/><path d="M292.255 42.997l-14.309 7.632a1.1 1.1 0 0 1-1.348-1.692 8813.833 8813.833 0 0 1 11.086-12.763 258.37 258.37 0 0 1 1.406-1.605c.104-.116.167-.186.21-.23.315-.327.03-.103.862-.327l56.301 6.211a1.082 1.082 0 0 1 .657 1.83l-.012.012a1.17 1.17 0 0 1-.824.352l-54.029.58z"/></g></g></svg>