<svg width="120" height="120" xmlns="http://www.w3.org/2000/svg" xmlns:xlink="http://www.w3.org/1999/xlink">
<defs>
<path d="M60 120C26.863 120 0 93.137 0 60S26.863 0 60 0s60 26.863 60 60-26.863 60-60 60zm.94-114.992C30.57 4.49 5.527 28.69 5.008 59.06c-.294 17.22 7.38 32.696 19.601 42.989.8-.698 1.656-1.337 2.609-1.856l16.41-8.951a6.704 6.704 0 0 0 3.494-5.884v-6.725s-4.818-5.761-6.654-13.766c-1.524-.986-2.545-2.69-2.545-4.63v-7.36c0-1.619.72-3.066 1.839-4.078v-10.64s-2.186-16.555 20.236-16.555c22.421 0 20.236 16.556 20.236 16.556v10.639c1.12 1.012 1.838 2.459 1.838 4.078v7.36c0 2.473-1.66 4.555-3.914 5.25-1.256 3.904-3.067 7.626-5.463 11.009a26.541 26.541 0 0 1-1.662 2.137v6.895a6.7 6.7 0 0 0 3.705 5.994l17.573 8.785c1.054.528 2.007 1.194 2.885 1.935a55.435 55.435 0 0 0 1.964-1.719c10.727-9.838 17.559-23.88 17.827-39.583.523-30.37-23.675-55.413-54.047-55.932z" id="a"/></defs>
<use fill="#D9DBE3" fill-rule="nonzero" xlink:href="#a"/>
</svg>